<mxfile host="app.diagrams.net" modified="2023-09-25T18:17:33.385Z" agent="Mozilla/5.0 (Windows NT 10.0; Win64; x64; rv:102.0) Gecko/20100101 Firefox/102.0" version="21.7.5" etag="Meyk9IwnMK1W5a8VXo_e" type="github">
  <diagram name="Page-1" id="unvIl2tro3VuUnmBDBTP">
    <mxGraphModel>
      <root>
        <mxCell id="0" />
        <mxCell id="1" parent="0" />
      </root>
    </mxGraphModel>
  </diagram>
</mxfile>
